<svg xmlns="http://www.w3.org/2000/svg" width="15.686" height="13.016" viewBox="0 0 15.686 13.016">
  <g id="Icon" transform="translate(0.5 0.5)">
    <path id="Path" d="M9.335,17.335a.5.5,0,0,1-.354-.146L6.313,14.521a.5.5,0,1,1,.707-.707l2.314,2.314,2.314-2.314a.5.5,0,1,1,.707.707L9.689,17.189A.5.5,0,0,1,9.335,17.335Z" transform="translate(-1.991 -4.82)" fill="#969696"/>
    <path id="Line" d="M0,6.5A.5.5,0,0,1-.5,6V0A.5.5,0,0,1,0-.5.5.5,0,0,1,.5,0V6A.5.5,0,0,1,0,6.5Z" transform="translate(7.342 5.864)" fill="#969696"/>
    <path id="Path-2" data-name="Path" d="M14.094,13.064a.5.5,0,0,1-.288-.909A2.835,2.835,0,0,0,12.174,7h-.842a.5.5,0,0,1-.484-.376A4.837,4.837,0,1,0,2.54,11.032a.5.5,0,0,1-.749.663A5.837,5.837,0,1,1,11.706,6h.466a3.835,3.835,0,0,1,2.209,6.973A.5.5,0,0,1,14.094,13.064Z" transform="translate(-0.826 -2.49)" fill="#969696"/>
  </g>
</svg>
