<svg xmlns="http://www.w3.org/2000/svg" width="13.127" height="13.127" viewBox="0 0 13.127 13.127">
  <g id="Icon" transform="translate(0.5 0.5)">
    <path id="Path" d="M11.258,15.606H3.848A1.85,1.85,0,0,1,2,13.758V6.348A1.85,1.85,0,0,1,3.848,4.5H7.89a.5.5,0,0,1,0,1H3.848A.849.849,0,0,0,3,6.348v7.41a.849.849,0,0,0,.848.848h7.41a.849.849,0,0,0,.848-.848V9.716a.5.5,0,0,1,1,0v4.042A1.85,1.85,0,0,1,11.258,15.606Z" transform="translate(-2.5 -2.979)" fill="#969696"/>
    <path id="Path-2" data-name="Path" d="M16.542,7.042a.5.5,0,0,1-.5-.5V3H12.5a.5.5,0,0,1,0-1h4.042a.5.5,0,0,1,.5.5V6.542A.5.5,0,0,1,16.542,7.042Z" transform="translate(-4.415 -2.5)" fill="#969696"/>
    <path id="Line" d="M0,7.911a.5.5,0,0,1-.354-.146.5.5,0,0,1,0-.707L7.057-.354a.5.5,0,0,1,.707,0,.5.5,0,0,1,0,.707L.354,7.765A.5.5,0,0,1,0,7.911Z" transform="translate(4.716)" fill="#969696"/>
  </g>
</svg>
