<svg xmlns="http://www.w3.org/2000/svg" width="47.069" height="38.563" viewBox="0 0 47.069 38.563">
  <g id="Group_2515" data-name="Group 2515" transform="translate(12864.632 -2011.289)">
    <path id="Path" d="M22.866,19.732A5.8,5.8,0,0,0,20.547,8.624H19.086A9.276,9.276,0,1,0,4.313,18.19" transform="translate(-12844.963 2010.877)" fill="none" stroke="#163ba0" stroke-linecap="round" stroke-linejoin="round" stroke-width="2"/>
    <circle id="Path-2" data-name="Path" cx="15.847" cy="15.847" r="15.847" transform="translate(-12853.073 2018.16)" fill="#005bff"/>
    <g id="Icon" transform="translate(-12863.628 2012.302)">
      <path id="Path-3" data-name="Path" d="M21.391,10.588H19.868a9.673,9.673,0,1,0-9.359,12.092H21.391a6.046,6.046,0,0,0,0-12.092Z" transform="translate(-0.828 -3.332)" fill="none" stroke="#013ca6" stroke-linecap="round" stroke-linejoin="round" stroke-width="2"/>
    </g>
    <g id="Group_2347" data-name="Group 2347" transform="translate(-12844.233 2024.402)">
      <path id="Path-4" data-name="Path" d="M6.667,11.667a9.459,9.459,0,0,0,7.006,3.5,9.459,9.459,0,0,0,7.006-3.5" transform="translate(-6.667 3.525)" fill="none" stroke="#fff" stroke-linecap="round" stroke-linejoin="round" stroke-width="2"/>
      <path id="Path-5" data-name="Path" d="M6.667,14.167l4.216,4.216L15.1,14.167" transform="translate(-3.872 -7.458)" fill="none" stroke="#fff" stroke-linecap="round" stroke-linejoin="round" stroke-width="2"/>
      <path id="Line" d="M0,3.727v10.7" transform="translate(7.007 -3.727)" fill="#005bff" stroke="#fff" stroke-linecap="round" stroke-width="2"/>
    </g>
  </g>
</svg>
