<svg xmlns="http://www.w3.org/2000/svg" width="34" height="34" viewBox="0 0 34 34">
  <g id="Phone" transform="translate(-165 -3604)">
    <rect id="Area" width="34" height="34" rx="17" transform="translate(165 3604)" fill="#f1f1f1"/>
    <g id="Icon" transform="translate(172.304 3614.145)">
      <path id="Path" d="M20.061,5.98a2.466,2.466,0,0,0-1.72-1.774,63.8,63.8,0,0,0-7.627-.373s-6.1,0-7.627.408a2.466,2.466,0,0,0-1.72,1.774,25.725,25.725,0,0,0-.408,4.691,25.776,25.776,0,0,0,.408,4.727,2.464,2.464,0,0,0,1.72,1.7c1.526.408,7.627.408,7.627.408s6.1,0,7.627-.408a2.465,2.465,0,0,0,1.72-1.773,25.765,25.765,0,0,0,.408-4.657,25.789,25.789,0,0,0-.408-4.727Z" transform="translate(-0.958 -3.833)" fill="#ff3131"/>
      <path id="Path-2" data-name="Path" d="M9.344,13.926l5.1-2.9-5.1-2.9Z" transform="translate(-1.583 -4.153)" fill="#fff"/>
    </g>
  </g>
</svg>
