<svg xmlns="http://www.w3.org/2000/svg" width="34" height="34" viewBox="0 0 34 34">
  <g id="Phone" transform="translate(-165 -3604)">
    <rect id="Area" width="34" height="34" rx="17" transform="translate(165 3604)" fill="#f1f1f1"/>
    <g id="Icon" transform="translate(174.725 3613.711)">
      <path id="Path" d="M17.021,12.63v2.09A1.393,1.393,0,0,1,15.5,16.113a13.79,13.79,0,0,1-6.011-2.138A13.586,13.586,0,0,1,5.312,9.8,13.784,13.784,0,0,1,3.173,3.756,1.393,1.393,0,0,1,4.56,2.237h2.09a1.393,1.393,0,0,1,1.393,1.2A8.942,8.942,0,0,0,8.53,5.393a1.393,1.393,0,0,1-.313,1.47l-.885.885a11.145,11.145,0,0,0,4.179,4.179l.885-.885a1.393,1.393,0,0,1,1.47-.313,8.942,8.942,0,0,0,1.957.488A1.393,1.393,0,0,1,17.021,12.63Z" transform="translate(-3.168 -1.541)" fill="none" stroke="#013ca6" stroke-linecap="round" stroke-linejoin="round" stroke-width="1"/>
      <g id="Icon-2" data-name="Icon" transform="translate(9.012)">
        <path id="Path-2" data-name="Path" d="M12.707,4.286a3.483,3.483,0,0,1,2.751,2.751M12.707,1.5a6.269,6.269,0,0,1,5.538,5.531" transform="translate(-12.707 -1.5)" fill="none" stroke="#013ca6" stroke-linecap="round" stroke-linejoin="round" stroke-width="1"/>
      </g>
    </g>
  </g>
</svg>
