<svg xmlns="http://www.w3.org/2000/svg" width="34" height="32.396" viewBox="0 0 34 32.396">
  <g id="LINE_LOGO" data-name="LINE LOGO" transform="translate(-366.945 -247.537)">
    <g id="FULL_COLOR_ICON" data-name="FULL COLOR ICON" transform="translate(360.945 238.537)">
      <g id="TYPE_A" data-name="TYPE A" transform="translate(6 9)">
        <g id="Group_2" data-name="Group 2">
          <path id="Path_1" data-name="Path 1" d="M411.059,271.6c0-7.607-7.626-13.8-17-13.8s-17,6.189-17,13.8c0,6.819,6.048,12.531,14.218,13.611.553.119,1.307.365,1.5.839a3.5,3.5,0,0,1,.055,1.537s-.2,1.2-.242,1.455c-.074.43-.342,1.681,1.472.916s9.79-5.764,13.357-9.87h0a12.273,12.273,0,0,0,3.644-8.488" transform="translate(-377.059 -257.805)" fill="#00b900"/>
          <g id="Group_1" data-name="Group 1" transform="translate(5.539 10.109)">
            <path id="Path_2" data-name="Path 2" d="M409.486,283.813h-1.2a.332.332,0,0,0-.332.332v7.431a.332.332,0,0,0,.332.331h1.2a.332.332,0,0,0,.332-.331v-7.431a.332.332,0,0,0-.332-.332" transform="translate(-401.491 -283.813)" fill="#fff"/>
            <path id="Path_3" data-name="Path 3" d="M422.442,283.813h-1.2a.332.332,0,0,0-.332.332v4.415l-3.406-4.6a.415.415,0,0,0-.026-.034l0,0-.02-.02-.006-.005-.018-.015-.009-.007-.017-.012-.01-.006-.018-.01-.011-.005-.019-.008-.011,0-.02-.007-.012,0-.019,0-.014,0-.017,0h-1.225a.332.332,0,0,0-.332.332v7.431a.332.332,0,0,0,.332.331h1.2a.332.332,0,0,0,.333-.331v-4.414l3.409,4.6a.329.329,0,0,0,.084.082l0,0,.021.012.009.005.016.008.016.007.01,0,.023.007h.005a.32.32,0,0,0,.085.011h1.2a.332.332,0,0,0,.332-.331v-7.431a.332.332,0,0,0-.332-.332" transform="translate(-406.214 -283.813)" fill="#fff"/>
            <path id="Path_4" data-name="Path 4" d="M396.5,290.046h-3.251v-5.9a.332.332,0,0,0-.332-.332h-1.2a.332.332,0,0,0-.332.332v7.43h0a.329.329,0,0,0,.093.229l0,.005,0,0a.33.33,0,0,0,.23.092H396.5a.332.332,0,0,0,.331-.332v-1.2a.332.332,0,0,0-.331-.332" transform="translate(-391.392 -283.813)" fill="#fff"/>
            <path id="Path_5" data-name="Path 5" d="M441.908,285.674a.332.332,0,0,0,.332-.332v-1.2a.332.332,0,0,0-.332-.333h-4.779a.33.33,0,0,0-.23.094l0,0-.005.006a.332.332,0,0,0-.092.229h0v7.43h0a.33.33,0,0,0,.093.23l0,.005,0,0a.33.33,0,0,0,.23.093h4.779a.332.332,0,0,0,.332-.332v-1.2a.332.332,0,0,0-.332-.332h-3.25v-1.256h3.25a.332.332,0,0,0,.332-.333v-1.2a.332.332,0,0,0-.332-.333h-3.25v-1.256Z" transform="translate(-419.074 -283.813)" fill="#fff"/>
          </g>
        </g>
      </g>
    </g>
  </g>
</svg>
