<svg id="TCR-Logo-onwhite" xmlns="http://www.w3.org/2000/svg" width="270" height="57.208" viewBox="0 0 270 57.208">
  <g id="Group_1" data-name="Group 1" transform="translate(52.8 0)">
    <path id="Path_1" data-name="Path 1" d="M128.864,42.557H66.6V39.9h62.264Z" transform="translate(-66.351 -8.905)" fill="#ff7301"/>
    <path id="Path_2" data-name="Path 2" d="M68.375,24.723a5.835,5.835,0,0,1-1.494-1.162,2.91,2.91,0,0,1-.581-1.909,3.824,3.824,0,0,1,1.245-2.989A5.825,5.825,0,0,1,71.364,17.5a22.54,22.54,0,0,1,2.408.083l2.491.249-.415,2.574H71.53a2.838,2.838,0,0,0-1.411.249.872.872,0,0,0-.415.747c0,.581.664,1.079,1.909,1.328,1.909.5,2.989.747,3.321.913a4.433,4.433,0,0,1,1.328,1.079,4.049,4.049,0,0,1,.664,2.325,2.3,2.3,0,0,1-.083.747A2.983,2.983,0,0,1,75.515,30.2a4.121,4.121,0,0,1-2.574.747H66.632V26.466h2.823v1.909h2.657a4.044,4.044,0,0,0,1.245-.166,1,1,0,0,0,.5-1c.083-.664-.581-1.079-1.826-1.411a18.694,18.694,0,0,1-3.653-1.079" transform="translate(-66.3 -5.033)" fill="#fff"/>
    <path id="Path_3" data-name="Path 3" d="M91.543,31.051H88.887l-.166-2.491a5.588,5.588,0,0,1-1.411,1.992,3.035,3.035,0,0,1-2.075.747,4.7,4.7,0,0,1-2.989-1.079A4.066,4.066,0,0,1,81,27.066V18.1h2.989v8.053a3.958,3.958,0,0,0,.415,1.826,1.581,1.581,0,0,0,1.494.83,2.087,2.087,0,0,0,1.826-1.079,3.955,3.955,0,0,0,.747-2.408V18.1H91.46V31.051Z" transform="translate(-68.796 -5.137)" fill="#fff"/>
    <path id="Path_4" data-name="Path 4" d="M96.147,20.523,95.4,19.028a6.73,6.73,0,0,1,1.494-.83,6.662,6.662,0,0,1,2.491-.5,2.746,2.746,0,0,1,2.408,1,2.953,2.953,0,0,1,.415,1.577V30.983H99.219V21.519a2.885,2.885,0,0,0-.166-1.079,1.142,1.142,0,0,0-1.079-.5,2.866,2.866,0,0,0-1.079.249,1.564,1.564,0,0,0-.747.332" transform="translate(-71.242 -5.068)" fill="#fff"/>
    <path id="Path_5" data-name="Path 5" d="M108.589,24.574a2.761,2.761,0,0,1,1.162-1,3.256,3.256,0,0,1,1.494-.332v2.491c-.166,0-.332-.083-.5-.083a1.8,1.8,0,0,0-1.577.83,3.064,3.064,0,0,0-.581,1.909v2.491H105.6V22.332a4.663,4.663,0,0,1,1.079-3.4c.83-.913,2.241-1.328,4.234-1.328,1.909,0,3.238.415,4.068,1.328a4.663,4.663,0,0,1,1.079,3.4v8.634h-2.989V22.249a2.339,2.339,0,0,0-.581-1.743,2.067,2.067,0,0,0-1.577-.581,2.261,2.261,0,0,0-1.66.581,2.378,2.378,0,0,0-.664,1.743Z" transform="translate(-72.974 -5.05)" fill="#fff"/>
    <path id="Path_6" data-name="Path 6" d="M120.047,20.523l-.747-1.494a6.73,6.73,0,0,1,1.494-.83,6.662,6.662,0,0,1,2.491-.5,2.494,2.494,0,0,1,2.325,1,2.953,2.953,0,0,1,.415,1.577V30.983h-2.989V21.519a2.885,2.885,0,0,0-.166-1.079,1.142,1.142,0,0,0-1.079-.5,2.866,2.866,0,0,0-1.079.249,2.485,2.485,0,0,0-.664.332" transform="translate(-75.537 -5.068)" fill="#fff"/>
    <path id="Path_7" data-name="Path 7" d="M136.738,21.553a2.265,2.265,0,0,0-.581-1.079,2.465,2.465,0,0,0-1.494-.415,2.855,2.855,0,0,0-1.66.415,1.189,1.189,0,0,0-.415.913c0,.581.913,1.079,2.906,1.577a8.428,8.428,0,0,1,2.574.83,3.734,3.734,0,0,1,1.328,1.245,3.23,3.23,0,0,1,.581,1.909,3.969,3.969,0,0,1-1.411,3.238,5.985,5.985,0,0,1-3.819,1.162,6.927,6.927,0,0,1-3.736-.83,3.785,3.785,0,0,1-1.577-1.66A2.27,2.27,0,0,1,129.1,27.7l2.823-.5a1.883,1.883,0,0,0,.913,1.328,3.429,3.429,0,0,0,1.909.415,3.308,3.308,0,0,0,1.411-.249,1.2,1.2,0,0,0,.664-1.079c0-.664-.664-1.162-1.909-1.411a14.82,14.82,0,0,1-3.321-1,3.843,3.843,0,0,1-1.328-1.245,2.993,2.993,0,0,1-.5-1.66,4.253,4.253,0,0,1,1.245-3.238,5.351,5.351,0,0,1,3.653-1.162,5.057,5.057,0,0,1,2.989.83,3.868,3.868,0,0,1,1.743,2.491Z" transform="translate(-77.25 -5.103)" fill="#fff"/>
    <path id="Path_8" data-name="Path 8" d="M159.349,34.362V9.789c.664-4.9,8.053-3.321,8.053-3.321V4.891c-5.23-2.241-13.781-.415-17.517-.415S146.232,2.4,146.232,2.4L141.5,4.475s.83,2.989,5.811,2.989c5.811,0,8.3-1.577,11.291-1.079,0,0-4.234,1.411-4.234,5.4v22.5c0,1.992,1.411,1.909,1.411,1.909h5.313c-1.66,0-1.743-1.826-1.743-1.826" transform="translate(-79.439 -2.4)" fill="#fff"/>
    <path id="Path_9" data-name="Path 9" d="M222.924,37.028V20.009c0-1.992-1.411-1.909-1.411-1.909H216.2c1.66,0,1.743,1.826,1.743,1.826V36.945c0,1.992,1.411,1.909,1.411,1.909h5.313c-1.66,0-1.743-1.826-1.743-1.826" transform="translate(-92.43 -5.152)" fill="#fff"/>
    <path id="Path_10" data-name="Path 10" d="M296.76,36.977V24.524s0-6.724-8.717-6.724c-8.8,0-10.543,6.226-10.543,11.54s3.321,9.713,8.219,9.713c3.321,0,4.234-1.66,4.234-1.66l-1-2.657s-.332,1-2.491,1-3.985-2.574-3.985-6.641c0-3.4.913-7.97,5.479-7.97,4.151,0,3.736,4.234,3.736,5.728V36.894c0,1.992,1.411,1.909,1.411,1.909h5.313c-1.577,0-1.66-1.826-1.66-1.826" transform="translate(-103.303 -5.1)" fill="#fff"/>
    <path id="Path_11" data-name="Path 11" d="M323.254,36.977V17.8h-4.9l-2.242,1.826s-.5-1.826-3.9-1.826c-9.215,0-8.219,11.54-8.219,11.54,0,5.313,3.321,9.713,8.219,9.713,3.321,0,4.234-1.66,4.234-1.66l-1-2.657s-.332,1-2.491,1-3.985-2.574-3.985-6.641c0,0-.083-7.887,4.151-7.887a3.182,3.182,0,0,1,2.657,1.826l2.491-1.494V36.811c0,1.992,1.411,1.909,1.411,1.909H325c-1.66.083-1.743-1.743-1.743-1.743" transform="translate(-107.797 -5.1)" fill="#fff"/>
    <path id="Path_12" data-name="Path 12" d="M179.134,17.7a8.856,8.856,0,0,0-6.309,2.906v-.664c0-1.992-1.411-1.909-1.411-1.909H166.1c1.66,0,1.743,1.826,1.743,1.826V38.787h4.981V28.409c0-5.977,4.068-7.306,5.811-7.306,1.826,0,1.743,2.657,1.743,2.657V38.787h4.981V23.76c0-3.819-1.66-6.06-6.226-6.06" transform="translate(-83.721 -5.082)" fill="#fff"/>
    <path id="Path_13" data-name="Path 13" d="M204.736,35.864h-3.819s-3.736-.083-3.736-3.487a4.085,4.085,0,0,1,4.234-4.234h1.743V25.238h-1.743s-3.9.249-3.9-2.491,4.815-1.66,5.562-.747l-.581-3.653s-.913-.747-3.487-.747-5.894,1-5.894,4.9a4.015,4.015,0,0,0,3.819,4.4,5.414,5.414,0,0,0-4.732,5.645,5.99,5.99,0,0,0,6.06,6.143h11.29V17.932h-4.9V35.864Z" transform="translate(-88.272 -5.065)" fill="#fff"/>
    <path id="Path_14" data-name="Path 14" d="M245.9,36.96v-12.2c0-.5.664-7.057-8.634-7.057-8.717,0-8.966,5.313-8.966,6.807V36.794c0,1.992,1.411,1.909,1.411,1.909h5.313c-1.66,0-1.743-1.826-1.743-1.826V34.719c.5-5.23,4.649-4.317,4.649-4.317l-.415-3.985a4.716,4.716,0,0,0-4.151,2.74V25.006a3.625,3.625,0,0,1,3.985-3.653c3.985,0,3.736,3.985,3.736,3.985V36.794c0,1.992,1.411,1.909,1.411,1.909h5.313A1.791,1.791,0,0,1,245.9,36.96" transform="translate(-94.58 -5.082)" fill="#fff"/>
    <path id="Path_15" data-name="Path 15" d="M258.643,23.528c0-.913.5-2.075,3.736-2.075,3.321,0,3.57,2.325,3.57,2.325l4.9-.747s-.83-5.23-8.3-5.23-8.966,3.4-8.966,6.891c0,2.241,1.909,4.981,7.389,5.811s4.9,2.574,4.9,2.574.166,2.075-4.068,2.075-4.483-2.74-4.483-2.74l-4.815.747c1.411,5.23,6.392,5.811,9.381,5.811s9.464-.249,9.464-6.475c-.083-6.974-12.7-5.313-12.7-8.966" transform="translate(-98.801 -5.1)" fill="#fff"/>
    <path id="Path_16" data-name="Path 16" d="M279.682,11.555h16.77V8.4H280.678l-1.328,2.241c-.083,0-.664.913.332.913" transform="translate(-103.576 -3.419)" fill="#fff"/>
    <rect id="Rectangle_11" data-name="Rectangle 11" width="1.66" height="6.891" transform="translate(160.292 47.328)" fill="#fff"/>
    <path id="Path_17" data-name="Path 17" d="M270.774,64.266a3.721,3.721,0,0,1-.083,1c-.083.332-.166.581-.249.83a1.116,1.116,0,0,1-.581.5,3.1,3.1,0,0,1-1,.166,1.6,1.6,0,0,1-.83-.249,2.919,2.919,0,0,1-.747-.581,1.7,1.7,0,0,1-.664.664,1.6,1.6,0,0,1-.83.249,4.207,4.207,0,0,1-1.079-.166,1.168,1.168,0,0,1-.581-.5,1.4,1.4,0,0,1-.249-.83,4.041,4.041,0,0,1-.083-1V59.783h1.66V65.1c0,.083,0,.166.083.166,0,.083.083.083.166.166s.166.083.332.083a.305.305,0,0,0,.249-.083l.166-.166c0-.083.083-.083.083-.166V59.7h1.66v5.4c0,.083,0,.166.083.166,0,.083.083.083.166.166s.166.083.332.083a.3.3,0,0,0,.249-.083l.166-.166c0-.083,0-.083.083-.166V59.7h1.66v4.566Z" transform="translate(-100.722 -12.372)" fill="#fff"/>
    <path id="Path_18" data-name="Path 18" d="M264.9,57.575l.5-1.079h3.238v-1h.664c.083,0,.166,0,.166.083v.664c0,.083,0,.166.083.166,0,.083.083.083.166.083s.166,0,.166-.083a.29.29,0,0,1,.083-.166v-.664c0-.083.083-.083.166-.083h.664v2.075Z" transform="translate(-100.909 -11.609)" fill="#fff"/>
    <rect id="Rectangle_12" data-name="Rectangle 12" width="1.66" height="1.992" transform="translate(168.386 41.577)" fill="#fff"/>
    <path id="Path_19" data-name="Path 19" d="M280.034,63.153a3.879,3.879,0,0,1-.249,1.411,3.257,3.257,0,0,1-.664,1.162,3.158,3.158,0,0,1-1.079.747,4.022,4.022,0,0,1-1.494.249,2.843,2.843,0,0,1-1.494-.332,2.64,2.64,0,0,1-1-.913,5.724,5.724,0,0,1-.581-1.245,4.914,4.914,0,0,1-.083-1.577h3.238v1.079h-1.577a2.3,2.3,0,0,0,.415,1.328,1.639,1.639,0,0,0,1.162.5,1.366,1.366,0,0,0,1.245-.664,3.1,3.1,0,0,0,.332-1.66,4.042,4.042,0,0,0-.083-1,1.564,1.564,0,0,0-.332-.747,1.409,1.409,0,0,0-.5-.5,1.365,1.365,0,0,0-.83-.166,1.249,1.249,0,0,0-.913.332,1.523,1.523,0,0,0-.581.83l-1.577-.249a3.882,3.882,0,0,1,.415-.83,5.373,5.373,0,0,1,.664-.747,9.056,9.056,0,0,1,.913-.5,2.836,2.836,0,0,1,1.245-.166,4.022,4.022,0,0,1,1.494.249,3.159,3.159,0,0,1,1.079.747,3.884,3.884,0,0,1,.664,1.162,9.149,9.149,0,0,1,.166,1.494" transform="translate(-102.386 -12.338)" fill="#fff"/>
    <path id="Path_20" data-name="Path 20" d="M288.126,64.381a1.987,1.987,0,0,1-.83,1.743,3.34,3.34,0,0,1-2.158.581,5.024,5.024,0,0,1-1.245-.166,2.975,2.975,0,0,1-.913-.332,3.516,3.516,0,0,1-.581-.415,1.737,1.737,0,0,1-.332-.5c-.083-.166-.083-.249-.166-.415V64.63l1.577-.249a1.209,1.209,0,0,0,.5.747,2.3,2.3,0,0,0,1.079.249h.415c.166,0,.249-.083.415-.166.083-.083.249-.166.249-.249.083-.083.083-.166.083-.332a.455.455,0,0,0-.332-.5,7.847,7.847,0,0,0-.747-.249,4.168,4.168,0,0,0-1-.166,2.974,2.974,0,0,1-.913-.332,1.96,1.96,0,0,1-.747-.664,1.741,1.741,0,0,1-.332-.913,2.378,2.378,0,0,1,.664-1.743,3.107,3.107,0,0,1,2.075-.664,3.405,3.405,0,0,1,.913.083,3.47,3.47,0,0,1,.83.332,4.156,4.156,0,0,1,.664.581,3.364,3.364,0,0,1,.415.747l-1.577.249a1.338,1.338,0,0,0-.332-.581,1.239,1.239,0,0,0-.83-.249,1.442,1.442,0,0,0-1,.249.717.717,0,0,0-.249.5.6.6,0,0,0,.332.5c.249.083.5.166.83.249a4.166,4.166,0,0,0,1,.166,2.974,2.974,0,0,1,.913.332,2.689,2.689,0,0,1,.747.664,1.522,1.522,0,0,1,.581,1.162" transform="translate(-104.05 -12.321)" fill="#fff"/>
    <path id="Path_21" data-name="Path 21" d="M292.058,66.623V61.143c0-.083-.083-.166-.083-.249-.083-.083-.166-.083-.249-.166a.622.622,0,0,0-.415-.083,1.231,1.231,0,0,0-.581.083,1.815,1.815,0,0,0-.415.249l-.415-.83a1.146,1.146,0,0,1,.332-.249c.166-.083.249-.166.415-.249a1.2,1.2,0,0,1,.581-.166,2.3,2.3,0,0,1,.747-.083,2.984,2.984,0,0,1,.913.166,1.277,1.277,0,0,1,.5.332.718.718,0,0,1,.249.5,1.053,1.053,0,0,1,.083.5v5.562h-1.66Z" transform="translate(-105.409 -12.321)" fill="#fff"/>
    <path id="Path_22" data-name="Path 22" d="M301.771,64.315a2.378,2.378,0,0,1-.664,1.743,3.044,3.044,0,0,1-2.159.664,3.864,3.864,0,0,1-2.325-.581,2.042,2.042,0,0,1-.83-1.826,1.564,1.564,0,0,1,.166-.664,2.406,2.406,0,0,1,.747-.747,1.178,1.178,0,0,1-.747-.664,1.583,1.583,0,0,1-.166-1.079,1.457,1.457,0,0,1,.5-1.245,2.039,2.039,0,0,1,1.245-.415,3.113,3.113,0,0,1,.913.083c.332.083.581.166.83.249l-.332,1a1.564,1.564,0,0,0-1-.166.728.728,0,0,0-.5.581,1.053,1.053,0,0,0,.083.5c.083.166.249.249.332.332a1.18,1.18,0,0,0,.5.166,1.053,1.053,0,0,0,.5.083v.913h-.415c-.166,0-.249.083-.415.083-.083.083-.249.166-.332.249a.634.634,0,0,0-.166.415V64.4a.634.634,0,0,0,.166.415.829.829,0,0,0,.415.332,1.658,1.658,0,0,0,.747.166,1.231,1.231,0,0,0,.581-.083.648.648,0,0,0,.332-.332c.083-.166.166-.249.166-.415s.083-.332.083-.5v-4.4h1.66v4.732Z" transform="translate(-106.404 -12.338)" fill="#fff"/>
    <path id="Path_23" data-name="Path 23" d="M310.354,64.315a2.379,2.379,0,0,1-.664,1.743,3.136,3.136,0,0,1-2.242.664,3.864,3.864,0,0,1-2.325-.581,2.042,2.042,0,0,1-.83-1.826,1.564,1.564,0,0,1,.166-.664,2.407,2.407,0,0,1,.747-.747,1.178,1.178,0,0,1-.747-.664,1.583,1.583,0,0,1-.166-1.079,1.457,1.457,0,0,1,.5-1.245,2.039,2.039,0,0,1,1.245-.415,3.113,3.113,0,0,1,.913.083c.332.083.581.166.83.249l-.332,1a1.564,1.564,0,0,0-1-.166.728.728,0,0,0-.5.581,1.053,1.053,0,0,0,.083.5.829.829,0,0,0,.415.332,1.18,1.18,0,0,0,.5.166,1.053,1.053,0,0,0,.5.083v.913h-.415c-.166,0-.249.083-.415.083-.083.083-.249.166-.332.249a.634.634,0,0,0-.166.415V64.4a.634.634,0,0,0,.166.415.828.828,0,0,0,.415.332,1.658,1.658,0,0,0,.747.166,1.231,1.231,0,0,0,.581-.083.648.648,0,0,0,.332-.332c.083-.166.166-.249.166-.415v-4.9h1.743v4.732Z" transform="translate(-107.847 -12.338)" fill="#fff"/>
    <rect id="Rectangle_13" data-name="Rectangle 13" width="1.66" height="1.992" transform="translate(200.763 44.056)" fill="#fff"/>
    <path id="Path_24" data-name="Path 24" d="M319.434,63.153a3.878,3.878,0,0,1-.249,1.411,3.258,3.258,0,0,1-.664,1.162,2.528,2.528,0,0,1-1.079.747,4.022,4.022,0,0,1-1.494.249,2.843,2.843,0,0,1-1.494-.332,2.639,2.639,0,0,1-1-.913,5.727,5.727,0,0,1-.581-1.245,4.914,4.914,0,0,1-.083-1.577h3.238v1.079h-1.577a1.886,1.886,0,0,0,.5,1.328,1.639,1.639,0,0,0,1.162.5,1.366,1.366,0,0,0,1.245-.664,3.1,3.1,0,0,0,.332-1.66,4.041,4.041,0,0,0-.083-1,1.565,1.565,0,0,0-.332-.747,1.116,1.116,0,0,0-.581-.5,1.365,1.365,0,0,0-.83-.166,1.249,1.249,0,0,0-.913.332,1.523,1.523,0,0,0-.581.83l-1.577-.249a3.877,3.877,0,0,1,.415-.83,5.373,5.373,0,0,1,.664-.747,9.053,9.053,0,0,1,.913-.5,2.836,2.836,0,0,1,1.245-.166,4.021,4.021,0,0,1,1.494.249,3.159,3.159,0,0,1,1.079.747,3.884,3.884,0,0,1,.664,1.162,9.146,9.146,0,0,1,.166,1.494" transform="translate(-109.291 -12.338)" fill="#fff"/>
    <path id="Path_25" data-name="Path 25" d="M327.854,64.315a2.378,2.378,0,0,1-.664,1.743,3.135,3.135,0,0,1-2.241.664,3.864,3.864,0,0,1-2.324-.581,2.041,2.041,0,0,1-.83-1.826,1.565,1.565,0,0,1,.166-.664,2.408,2.408,0,0,1,.747-.747,1.178,1.178,0,0,1-.747-.664,1.583,1.583,0,0,1-.166-1.079,1.457,1.457,0,0,1,.5-1.245,2.039,2.039,0,0,1,1.245-.415,3.113,3.113,0,0,1,.913.083c.332.083.581.166.83.249l-.332,1a1.564,1.564,0,0,0-1-.166.728.728,0,0,0-.5.581,1.053,1.053,0,0,0,.083.5.829.829,0,0,0,.415.332,1.18,1.18,0,0,0,.5.166,1.053,1.053,0,0,0,.5.083v.913h-.415c-.166,0-.249.083-.415.083-.083.083-.249.166-.332.249a.634.634,0,0,0-.166.415V64.4a.634.634,0,0,0,.166.415.829.829,0,0,0,.415.332,1.658,1.658,0,0,0,.747.166,1.231,1.231,0,0,0,.581-.083.648.648,0,0,0,.332-.332c.083-.166.166-.249.166-.415v-4.9h1.743v4.732Z" transform="translate(-110.819 -12.338)" fill="#fff"/>
    <g id="Group_2565" data-name="Group 2565" opacity="0">
      <path id="Path_26" data-name="Path 26" d="M72.166,65.545a2.526,2.526,0,0,1-.664.664,2.6,2.6,0,0,1-.83.415,4.167,4.167,0,0,1-1,.166,2.867,2.867,0,0,1-1.494-.415,1.346,1.346,0,0,1-.581-1.162.622.622,0,0,1,.083-.415l1.079-4.9h.913l-1,4.9v.332c0,.747.415,1.079,1.245,1.079A1.673,1.673,0,0,0,71.751,64.8l1-4.9h.913l-1.079,4.9a1.7,1.7,0,0,1-.415.747" transform="translate(-66.521 -12.406)" fill="#fff"/>
      <path id="Path_27" data-name="Path 27" d="M79.6,64.6a2.881,2.881,0,0,1-1,1.577,3.406,3.406,0,0,1-1.826.581,2.465,2.465,0,0,1-1.494-.415A1.5,1.5,0,0,1,74.7,65.1a1.413,1.413,0,0,1,.083-.581h1a.748.748,0,0,0-.083.415.809.809,0,0,0,.332.747,1.4,1.4,0,0,0,.83.249,1.984,1.984,0,0,0,1.162-.415,1.21,1.21,0,0,0,.581-1.079c0-.581-.415-1-1.328-1.162-1.162-.249-1.743-.747-1.743-1.411v-.332a2,2,0,0,1,1-1.328,3.069,3.069,0,0,1,1.743-.5,1.953,1.953,0,0,1,1.411.5,1.456,1.456,0,0,1,.415,1.328h-.913a.8.8,0,0,0-.249-.83,1.066,1.066,0,0,0-.83-.332,1.621,1.621,0,0,0-.581.083l-.5.249a.829.829,0,0,0-.332.415,1.18,1.18,0,0,0-.166.5.847.847,0,0,0,.415.664,5.672,5.672,0,0,0,1.079.332c1.079.249,1.577.747,1.577,1.577v.166c.083.166,0,.249,0,.249" transform="translate(-67.727 -12.372)" fill="#fff"/>
      <path id="Path_28" data-name="Path 28" d="M76.4,58.664,76.566,58h4.566l-.083.664Z" transform="translate(-68.016 -12.083)" fill="#fff"/>
      <path id="Path_29" data-name="Path 29" d="M87.362,63.37h-.415L86.7,64.7a2.486,2.486,0,0,1-.332.83,2.527,2.527,0,0,1-.664.664,2.6,2.6,0,0,1-.83.415,4.168,4.168,0,0,1-1,.166,2.867,2.867,0,0,1-1.494-.415A1.586,1.586,0,0,1,81.8,65.2a.622.622,0,0,1,.083-.415l1.079-4.9h.913l-1,4.9v.332c0,.747.415,1.079,1.245,1.079a1.624,1.624,0,0,0,1.826-1.411l.249-1.245H84.374l.332-1.328h.913l-.332.5H86.2l.664-2.906h.913l-.664,2.906h.913Z" transform="translate(-68.933 -12.389)" fill="#fff"/>
      <path id="Path_30" data-name="Path 30" d="M85.8,58.511l.332-1.411h.913l-.166.747h2.906l-.166.664Z" transform="translate(-69.611 -11.884)" fill="#fff"/>
      <path id="Path_31" data-name="Path 31" d="M92.485,66.674l1-4.732a1.413,1.413,0,0,0,.083-.581c0-.664-.332-1-1.079-1a2.223,2.223,0,0,0-2.075,1.66l-1,4.649H88.5l1.328-6.143v-.166a.719.719,0,0,0-.332-.581h1.079a.513.513,0,0,1,.166.581l-.083.332a2.843,2.843,0,0,1,2.242-1c1.079,0,1.577.5,1.577,1.411v.332a.5.5,0,0,1-.083.332l-1,4.9Z" transform="translate(-70.07 -12.372)" fill="#fff"/>
      <path id="Path_32" data-name="Path 32" d="M100.617,55.894a1.49,1.49,0,0,1-.83.747,1.569,1.569,0,0,0-.83.83l-1.577,7.555h.83l-.664.664H96.3l1.826-8.551a1.587,1.587,0,0,1,.747-.747c.5-.166.747-.415.747-.664a.61.61,0,0,0-.166-.5.7.7,0,0,0-.581-.166,1.339,1.339,0,0,0-.747.249.961.961,0,0,0-.415.581H96.8a1.845,1.845,0,0,1,.747-1.079,2.319,2.319,0,0,1,1.411-.415,1.757,1.757,0,0,1,1.162.332.913.913,0,0,1,.5.83v.332" transform="translate(-71.395 -11.472)" fill="#fff"/>
      <path id="Path_33" data-name="Path 33" d="M103.2,66.691a.513.513,0,0,1-.166-.581l.083-.332a2.414,2.414,0,0,1-2.075,1,2.039,2.039,0,0,1-1.245-.415,1.393,1.393,0,0,1-.5-1.162,1.413,1.413,0,0,1,.083-.581l1-4.815h.913l-1,4.649a1.053,1.053,0,0,0-.083.5c0,.747.415,1.162,1.245,1.162a1.831,1.831,0,0,0,1.245-.5,2.056,2.056,0,0,0,.664-1.162l1-4.649h.913l-1.328,6.143v.249a.719.719,0,0,0,.332.581H103.2Z" transform="translate(-71.904 -12.389)" fill="#fff"/>
      <path id="Path_34" data-name="Path 34" d="M109.8,66.657l1.079-4.9v-.332c0-.747-.415-1.079-1.245-1.079a2.056,2.056,0,0,0-1.743.913l.581.5a1.062,1.062,0,0,0-.83.83l-.83,3.985H105.9l.83-3.9a1.2,1.2,0,0,1,.747-.913l-.581-.5a3.1,3.1,0,0,1,1.162-1.162,3.555,3.555,0,0,1,1.826-.5,2.655,2.655,0,0,1,1.494.415,1.256,1.256,0,0,1,.581,1.162.748.748,0,0,1-.083.415l-1.079,4.9h-1Z" transform="translate(-73.025 -12.355)" fill="#fff"/>
      <path id="Path_35" data-name="Path 35" d="M116.936,66.64l.83-3.9a6.69,6.69,0,0,1-1.992.664,1.6,1.6,0,0,0-1.494,1.411c-.083.747.332,1.162,1.328,1.162a1.618,1.618,0,0,0,.664-.083l-.664.747h-.5a2.374,2.374,0,0,1-1.411-.415,1.339,1.339,0,0,1-.5-1.079.622.622,0,0,1,.083-.415,2.281,2.281,0,0,1,.83-1.328,4.214,4.214,0,0,1,1.494-.747,8.618,8.618,0,0,0,1-.249c.249-.083.415-.083.5-.166.581-.249.913-.581.913-1.079a.755.755,0,0,0-.332-.664,1.239,1.239,0,0,0-.83-.249,1.669,1.669,0,0,0-1.079.332,1.4,1.4,0,0,0-.581.83h-1.079a3.366,3.366,0,0,1,.415-.747,2.238,2.238,0,0,1,.664-.581,7.712,7.712,0,0,1,.83-.415,3.53,3.53,0,0,1,.913-.166,2.375,2.375,0,0,1,1.411.415,1.419,1.419,0,0,1,.581,1.079v.332l-1.079,5.147h-.913Z" transform="translate(-74.473 -12.338)" fill="#fff"/>
      <path id="Path_36" data-name="Path 36" d="M116.915,71.141l.332-1.494H116.5l.166-.747h1.577l-.415,2.241Z" transform="translate(-74.825 -13.934)" fill="#fff"/>
      <path id="Path_37" data-name="Path 37" d="M119.7,58.46l.332-1.66h.913l-.332,1.66Z" transform="translate(-75.601 -11.833)" fill="#fff"/>
      <path id="Path_38" data-name="Path 38" d="M125.079,65.594a4.156,4.156,0,0,1-.581.664,3.364,3.364,0,0,1-.747.415,2.949,2.949,0,0,1-.83.166,1.73,1.73,0,0,1-1.743-1.079l-.083.415c-.083.249-.166.5-.415.581H119.6a1.57,1.57,0,0,0,.664-.83l1.328-6.143h.913l-1,4.649v.249a1.375,1.375,0,0,0,.415,1,1.514,1.514,0,0,0,.913.415,1.748,1.748,0,0,0,1.079-.415A1.542,1.542,0,0,0,124.5,64.6l1-4.9h.913l-1.079,4.981a2.407,2.407,0,0,1-.249.913" transform="translate(-75.59 -12.372)" fill="#fff"/>
      <path id="Path_39" data-name="Path 39" d="M131.238,56a.872.872,0,0,0-.415.747l-1.743,8.468h.83l-.664.664H128l1.992-9.381a.893.893,0,0,1,.664-.747H128l.664-.747h3.487l-.166.747a1.339,1.339,0,0,0-.747.249" transform="translate(-77.05 -11.573)" fill="#fff"/>
      <path id="Path_40" data-name="Path 40" d="M134.685,66.674l1-4.732a1.413,1.413,0,0,0,.083-.581c0-.664-.332-1-1.079-1a2.223,2.223,0,0,0-2.075,1.66l-1,4.649H130.7l1.328-6.143v-.166a.719.719,0,0,0-.332-.581h1.079a.513.513,0,0,1,.166.581l-.083.332a2.843,2.843,0,0,1,2.242-1c1.079,0,1.577.5,1.577,1.411v.332a.5.5,0,0,1-.083.332l-1,4.9Z" transform="translate(-77.522 -12.372)" fill="#fff"/>
      <path id="Path_41" data-name="Path 41" d="M142.866,65.511a2.527,2.527,0,0,1-.664.664,3.88,3.88,0,0,1-.83.415,4.167,4.167,0,0,1-1,.166,2.465,2.465,0,0,1-1.494-.415,1.256,1.256,0,0,1-.581-1.162,1.053,1.053,0,0,1,.083-.5l.083-.5a1.54,1.54,0,0,1,.581-1,2.573,2.573,0,0,1,1.079-.5.965.965,0,0,1-1.079-1.079,1.733,1.733,0,0,1,.664-1.328,2.355,2.355,0,0,1,1.411-.581h.747l.332.747h-.913a1.219,1.219,0,0,0-1.328.913.67.67,0,0,0,.332.747,1.507,1.507,0,0,0,.913.166h.581l-.166.747h-.581a1.669,1.669,0,0,0-1.079.332,1.4,1.4,0,0,0-.581.83l-.083.415c0,.166-.083.249-.083.415,0,.664.415,1.079,1.245,1.079a1.673,1.673,0,0,0,1.826-1.411l1-4.9h.913l-1.079,4.9a1,1,0,0,1-.249.83" transform="translate(-78.847 -12.372)" fill="#fff"/>
      <path id="Path_42" data-name="Path 42" d="M149.966,65.121a2.526,2.526,0,0,1-.664.664,2.6,2.6,0,0,1-.83.415,4.166,4.166,0,0,1-1,.166,2.465,2.465,0,0,1-1.494-.415,1.346,1.346,0,0,1-.581-1.162.622.622,0,0,1,.083-.415l1.079-4.9h.913l-1,4.9v.332c0,.747.415,1.079,1.245,1.079a1.673,1.673,0,0,0,1.826-1.411l1.494-6.974h.913l-1.494,6.974a3.9,3.9,0,0,1-.5.747" transform="translate(-80.086 -11.981)" fill="#fff"/>
      <path id="Path_43" data-name="Path 43" d="M157.4,64.6a2.881,2.881,0,0,1-1,1.577,3.406,3.406,0,0,1-1.826.581,2.465,2.465,0,0,1-1.494-.415A1.5,1.5,0,0,1,152.5,65.1a1.412,1.412,0,0,1,.083-.581h1a.748.748,0,0,0-.083.415.809.809,0,0,0,.332.747,1.4,1.4,0,0,0,.83.249,1.983,1.983,0,0,0,1.162-.415,1.21,1.21,0,0,0,.581-1.079c0-.581-.415-1-1.328-1.162-1.162-.249-1.743-.747-1.743-1.411v-.332a2.166,2.166,0,0,1,.913-1.328,3.069,3.069,0,0,1,1.743-.5,2.318,2.318,0,0,1,1.494.5,1.456,1.456,0,0,1,.415,1.328h-.913a.8.8,0,0,0-.249-.83,1.066,1.066,0,0,0-.83-.332,1.413,1.413,0,0,0-.581.083l-.5.249a.829.829,0,0,0-.332.415,1.18,1.18,0,0,0-.166.5.847.847,0,0,0,.415.664,4.179,4.179,0,0,0,1.079.332c1.079.249,1.577.747,1.577,1.577v.166c.083.166,0,.249,0,.249" transform="translate(-81.32 -12.372)" fill="#fff"/>
      <path id="Path_44" data-name="Path 44" d="M161.009,65.947H159.1l.249-1.328h.913l-.166.581h1.411Zm.83-3.819H159.93l.249-1.328h.913l-.083.581h1.411Z" transform="translate(-82.467 -12.558)" fill="#fff"/>
      <path id="Path_45" data-name="Path 45" d="M166.885,66.657l1-4.9v-.332c0-.747-.415-1.079-1.245-1.079a2.056,2.056,0,0,0-1.743.913l.581.5a1.062,1.062,0,0,0-.83.83l-.83,3.985H162.9l.83-3.9a1.2,1.2,0,0,1,.747-.913l-.581-.5a3.1,3.1,0,0,1,1.162-1.162,3.555,3.555,0,0,1,1.826-.5,2.867,2.867,0,0,1,1.494.415,1.256,1.256,0,0,1,.581,1.162.748.748,0,0,1-.083.415l-1.079,4.9h-.913Z" transform="translate(-83.135 -12.355)" fill="#fff"/>
      <path id="Path_46" data-name="Path 46" d="M167.5,58.511l.249-1.411h1l-.166.747H171.4l-.083.664Z" transform="translate(-83.932 -11.884)" fill="#fff"/>
      <path id="Path_47" data-name="Path 47" d="M174.4,66.691a.513.513,0,0,1-.166-.581l.083-.332a2.414,2.414,0,0,1-2.076,1A2.039,2.039,0,0,1,171,66.358a1.393,1.393,0,0,1-.5-1.162,1.412,1.412,0,0,1,.083-.581l1-4.815h.913l-1,4.649a1.053,1.053,0,0,0-.083.5c0,.747.415,1.162,1.245,1.162a1.83,1.83,0,0,0,1.245-.5,2.056,2.056,0,0,0,.664-1.162l1-4.649h.913l-1.328,6.143v.249a.719.719,0,0,0,.332.581H174.4Z" transform="translate(-84.459 -12.389)" fill="#fff"/>
      <path id="Path_48" data-name="Path 48" d="M180.953,66.275a3.069,3.069,0,0,1-1.743.5,2.374,2.374,0,0,1-1.411-.415,1.233,1.233,0,0,1-.5-1.079.748.748,0,0,1,.083-.415l1.079-5.064h.913L178.3,64.781v.332c0,.581.332.913,1.079.913a1.55,1.55,0,0,0,1.66-1.245l.415-1.826v-.249c0-.581-.415-.913-1.162-.913h-.581l.166-.664h.581c1,0,1.494-.332,1.66-.913l.083-.415h.913l-.083.5q-.249,1.121-1.743,1.245a1.134,1.134,0,0,1,.913.332.809.809,0,0,1,.332.747v.332l-.415,1.992a4.477,4.477,0,0,1-1.162,1.328" transform="translate(-85.644 -12.389)" fill="#fff"/>
      <path id="Path_49" data-name="Path 49" d="M178.8,58.494l.083-.664h3.736l.166-.83h.913l-.332,1.494Z" transform="translate(-85.902 -11.867)" fill="#fff"/>
      <path id="Path_50" data-name="Path 50" d="M189.03,63.17c-.5,2.325-1.577,3.57-3.238,3.57a2.655,2.655,0,0,1-1.494-.415,1.566,1.566,0,0,1-.5-1.245v-.332h.913a1.073,1.073,0,0,0,1.162,1.328c1.079,0,1.826-.913,2.242-2.823a9.247,9.247,0,0,0,.166-1.411c0-1-.415-1.411-1.162-1.411a1.589,1.589,0,0,0-1.577,1.079h-1a3.364,3.364,0,0,1,.415-.747,2.238,2.238,0,0,1,.664-.581c.249-.166.5-.249.747-.415a2.949,2.949,0,0,1,.83-.166c1.328,0,1.909.664,1.909,2.075a1.829,1.829,0,0,1-.083.664,2.769,2.769,0,0,1,0,.83" transform="translate(-86.774 -12.355)" fill="#fff"/>
      <path id="Path_51" data-name="Path 51" d="M185.4,58.664l.083-.664h4.649l-.166.664Z" transform="translate(-87.052 -12.083)" fill="#fff"/>
      <path id="Path_52" data-name="Path 52" d="M194.417,66.657l1.079-5.23v-.332c0-.332-.083-.581-.332-.664a1.576,1.576,0,0,1-1.245.664,1,1,0,0,1-1-.664q-.5.125-.747,1l-.83,3.653,2.158-2.574h-1l.415-.664h1.66l-.166.664-3.4,4.068H190.1l1.162-5.313a1.614,1.614,0,0,1,.747-1.162,2.035,2.035,0,0,1,1.328-.5,1.053,1.053,0,0,0,.083.5.592.592,0,0,0,.5.249.943.943,0,0,0,.664-.249,1.737,1.737,0,0,0,.332-.5,1.323,1.323,0,0,1,1,.332,1.189,1.189,0,0,1,.415.913v.332l-1.162,5.313h-.747Z" transform="translate(-87.875 -12.355)" fill="#fff"/>
    </g>
  </g>
  <g id="Group_3" data-name="Group 3" transform="translate(0 2.989)">
    <g id="Group_2" data-name="Group 2">
      <path id="Path_53" data-name="Path 53" d="M27.609,17.415a2.235,2.235,0,0,0,0-3.238L26.032,12.6l-5.147,5.147,3.238,3.238ZM33.5,23.226a2.235,2.235,0,0,0,0-3.238l-1.577-1.577-5.147,5.147L30.017,26.8Zm-9.381-.83-3.238,3.238,1.577,1.577,3.57,3.57,3.238-3.238-3.57-3.57Zm-.747-.747-3.238-3.238L14.99,23.558,18.228,26.8l1.577-1.577Zm.747,12.37-3.238,3.238L26.032,42.4l1.577-1.577a2.182,2.182,0,0,0,0-3.238ZM12.749,25.883a2.182,2.182,0,0,0,0,3.238l3.57,3.57,3.238-3.238-5.147-5.147-1.66,1.577M26.7,31.445l5.147,5.147,1.577-1.577a2.182,2.182,0,0,0,0-3.238l-3.57-3.57Zm-6.143-1.66h0l-3.57,3.57,3.238,3.238,5.147-5.147L22.13,28.207l-1.577,1.577" transform="translate(-4.281 -7.121)" fill="#ff7301"/>
      <path id="Path_54" data-name="Path 54" d="M23.122,46.845A20.422,20.422,0,1,1,43.545,26.422,20.408,20.408,0,0,1,23.122,46.845Zm0-37.856A17.434,17.434,0,1,0,40.556,26.422,17.432,17.432,0,0,0,23.122,8.989Z" transform="translate(-2.7 -6)" fill="#fff"/>
    </g>
  </g>
</svg>
